<?xml version="1.0" standalone="no"?>
<!DOCTYPE svg PUBLIC "-//W3C//DTD SVG 20010904//EN"
 "http://www.w3.org/TR/2001/REC-SVG-20010904/DTD/svg10.dtd">
<svg version="1.0" xmlns="http://www.w3.org/2000/svg"
 width="1176.000000pt" height="508.000000pt" viewBox="0 0 1176.000000 508.000000"
 preserveAspectRatio="xMidYMid meet">
<metadata>
Created by potrace 1.16, written by Peter Selinger 2001-2019
</metadata>
<g transform="translate(0.000000,508.000000) scale(0.100000,-0.100000)"
fill="#000000" stroke="none">
<path d="M7535 4314 c-52 -8 -128 -36 -205 -74 -218 -110 -411 -303 -725 -725
-188 -252 -307 -430 -441 -660 -255 -438 -366 -654 -464 -905 -49 -125 -57
-139 -114 -195 -69 -68 -258 -179 -533 -313 -259 -127 -405 -166 -613 -166
-156 0 -217 17 -291 82 -36 33 -42 44 -43 80 l-1 43 90 37 c154 64 262 128
400 237 204 161 315 312 315 429 0 188 -244 199 -507 23 -187 -125 -269 -216
-362 -397 -50 -98 -70 -124 -189 -250 -227 -239 -432 -401 -619 -491 -141 -67
-276 -87 -337 -50 -81 50 -147 188 -186 387 -45 229 -52 253 -75 301 -51 102
-141 110 -250 24 -22 -18 -184 -176 -361 -351 -176 -176 -328 -320 -337 -320
-11 0 -1 26 42 103 31 56 116 207 187 336 121 218 132 235 174 258 169 95 459
307 740 542 254 211 329 280 583 531 287 282 378 386 564 645 150 209 233 409
233 562 0 88 -20 143 -63 176 -46 35 -66 39 -143 28 -53 -8 -98 -24 -189 -70
-308 -155 -635 -491 -1169 -1201 -212 -281 -509 -738 -706 -1085 -57 -99 -148
-256 -205 -350 -179 -299 -345 -650 -345 -732 0 -11 13 -38 29 -60 47 -65 105
-64 186 4 48 40 580 590 750 776 91 99 136 137 164 137 19 0 33 -41 57 -173
37 -199 58 -276 104 -367 96 -191 218 -256 410 -216 98 20 268 105 385 193
107 80 286 256 411 404 l90 105 0 -65 c-1 -57 4 -77 36 -143 82 -167 209 -238
426 -238 104 0 192 20 397 90 202 69 400 167 584 290 84 56 155 100 157 97 3
-3 -12 -67 -34 -144 -99 -345 -116 -676 -42 -848 21 -49 75 -107 123 -131 45
-24 156 -21 231 5 111 39 279 138 441 259 188 141 270 216 611 560 258 259
343 339 348 327 11 -29 7 -70 -13 -126 -54 -159 -101 -437 -101 -602 0 -287
91 -439 265 -440 86 0 163 25 297 99 269 149 416 272 886 738 351 348 389 383
349 321 -81 -128 -147 -280 -168 -389 -27 -144 48 -266 165 -266 56 0 181 71
283 160 179 157 323 353 443 603 l71 147 52 -30 c74 -41 217 -87 332 -105 73
-12 173 -16 384 -17 286 0 411 8 593 38 82 14 97 20 102 38 7 26 1 32 -44 44
-26 7 -63 4 -135 -9 -171 -31 -363 -41 -670 -37 -318 5 -366 13 -493 77 -102
52 -104 54 -93 142 10 75 2 169 -18 221 -31 80 -116 147 -187 148 -36 0 -79
-40 -90 -85 -4 -17 -41 -68 -83 -114 -42 -46 -109 -122 -149 -170 -40 -47 -79
-88 -87 -91 -7 -3 -147 -138 -311 -300 -528 -523 -720 -698 -950 -866 -212
-154 -417 -247 -507 -230 -46 9 -92 57 -119 124 -19 50 -22 75 -22 212 0 193
35 375 124 645 l40 121 218 185 c365 312 497 433 762 699 758 762 1141 1288
1140 1569 -1 294 -426 255 -775 -71 -161 -150 -399 -443 -635 -782 -257 -369
-601 -994 -720 -1308 l-33 -88 -341 -338 c-464 -460 -672 -643 -914 -803 -162
-107 -305 -169 -393 -169 -43 0 -92 40 -122 101 -76 153 -46 478 82 865 l46
141 215 184 c369 315 476 414 776 713 746 746 1124 1269 1124 1556 0 91 -21
131 -86 167 -41 23 -146 36 -209 27z m176 -77 c84 -56 80 -147 -15 -342 -57
-116 -139 -236 -292 -425 -203 -252 -537 -604 -808 -854 -574 -527 -756 -682
-756 -645 0 13 114 257 212 454 132 263 420 754 541 920 28 39 83 116 121 172
214 308 452 551 646 661 136 76 288 102 351 59z m1687 3 c50 -31 67 -80 53
-157 -43 -235 -272 -549 -835 -1143 -128 -134 -219 -221 -574 -544 -355 -323
-493 -438 -509 -423 -6 7 40 111 157 352 302 626 794 1371 1080 1637 178 165
282 233 420 274 96 29 164 30 208 4z m-5278 -96 c23 -23 25 -31 24 -117 -2
-106 -20 -170 -91 -311 -88 -177 -175 -294 -423 -576 -217 -246 -474 -483
-840 -776 -241 -193 -578 -434 -607 -434 -21 0 -16 14 43 122 75 139 75 140
105 184 14 22 70 109 124 194 146 230 309 473 390 580 39 52 99 136 132 185
33 50 94 129 134 176 41 48 115 136 164 195 164 197 226 264 321 348 172 154
274 220 387 251 65 18 105 12 137 -21z m629 -1920 c27 -6 31 -11 31 -38 0
-122 -208 -322 -517 -498 -147 -83 -163 -88 -163 -54 0 14 14 64 32 112 29 81
39 96 131 196 135 147 227 212 374 264 78 27 71 26 112 18z m4838 -168 c24
-32 43 -66 43 -75 0 -21 -75 -176 -131 -273 -126 -216 -408 -509 -527 -549
-52 -17 -64 0 -56 75 5 48 23 94 86 219 69 139 100 187 247 380 93 122 190
242 215 265 55 51 55 51 123 -42z"/>
</g>
</svg>
