<?xml version="1.0" standalone="no"?>
<!DOCTYPE svg PUBLIC "-//W3C//DTD SVG 20010904//EN"
 "http://www.w3.org/TR/2001/REC-SVG-20010904/DTD/svg10.dtd">
<svg version="1.0" xmlns="http://www.w3.org/2000/svg"
 width="1364.000000pt" height="802.000000pt" viewBox="0 0 1364.000000 802.000000"
 preserveAspectRatio="xMidYMid meet">
<g transform="translate(0.000000,802.000000) scale(0.100000,-0.100000)"
fill="#000000" stroke="none">
<path d="M8080 5730 c-151 -18 -338 -122 -504 -280 -255 -243 -630 -748 -893
-1200 -236 -407 -357 -644 -454 -890 -47 -121 -58 -140 -106 -187 -84 -81
-490 -305 -721 -397 -197 -79 -449 -109 -591 -71 -108 28 -177 90 -183 164 -3
32 -2 33 82 67 219 89 391 203 556 370 72 72 101 110 134 175 36 73 41 91 37
132 -8 94 -71 141 -177 134 -155 -11 -326 -100 -490 -254 -94 -88 -143 -156
-202 -280 -40 -84 -53 -98 -248 -294 -113 -113 -244 -235 -292 -270 -176 -131
-328 -206 -461 -228 -91 -16 -133 -4 -185 53 -76 82 -119 193 -157 406 -34
185 -53 246 -91 286 -28 31 -37 34 -86 34 -45 0 -64 -6 -104 -32 -27 -18 -201
-182 -386 -366 -185 -184 -342 -331 -348 -327 -6 4 -7 12 -1 23 37 70 175 319
261 473 97 174 107 188 150 210 189 98 701 493 1056 815 196 178 542 531 646
659 289 360 429 638 416 824 -10 126 -61 181 -167 181 -68 0 -110 -13 -223
-70 -312 -158 -674 -533 -1208 -1255 -192 -259 -510 -752 -678 -1050 -49 -88
-134 -234 -189 -325 -125 -206 -303 -560 -333 -661 -21 -72 -21 -78 -5 -108
27 -53 51 -71 93 -71 62 0 118 49 412 359 178 188 380 400 497 522 86 90 118
103 138 55 7 -17 21 -74 30 -126 26 -147 61 -290 84 -343 54 -127 141 -225
227 -258 42 -15 163 -12 234 6 116 30 271 118 415 236 83 67 272 260 369 377
38 45 71 82 74 82 3 0 2 -23 -1 -50 -10 -87 54 -225 139 -300 71 -62 191 -100
315 -100 227 0 699 185 1004 395 158 108 164 108 126 -8 -84 -255 -123 -593
-90 -783 30 -172 116 -264 247 -264 111 0 250 60 456 198 208 138 342 256 713
625 353 351 362 360 373 335 10 -21 6 -46 -23 -149 -85 -301 -112 -531 -83
-716 18 -117 45 -180 103 -235 48 -46 79 -58 153 -58 84 0 168 30 310 111 276
157 437 293 893 751 207 208 377 377 377 374 0 -3 -20 -36 -44 -73 -137 -213
-200 -420 -166 -543 13 -46 75 -106 119 -114 91 -17 212 55 387 229 176 175
292 345 394 578 24 53 46 97 50 97 4 0 27 -11 52 -25 66 -37 173 -75 273 -97
75 -17 139 -21 378 -25 293 -5 463 4 637 33 116 20 122 22 118 47 -5 38 -52
42 -205 18 -229 -37 -684 -52 -868 -30 -109 13 -219 47 -300 92 l-60 34 0 139
c0 125 -2 144 -23 186 -38 76 -121 138 -188 138 -25 0 -64 -43 -76 -83 -8 -28
-33 -65 -77 -112 -37 -38 -104 -114 -149 -167 -46 -54 -89 -98 -95 -98 -5 0
-188 -177 -406 -393 -508 -504 -687 -663 -934 -831 -172 -117 -311 -176 -410
-176 -44 0 -54 4 -87 38 -123 123 -104 507 49 956 29 89 46 122 67 139 46 36
389 332 529 456 72 63 246 230 388 371 784 773 1206 1361 1174 1633 -22 181
-263 214 -527 70 -236 -128 -540 -466 -912 -1014 -167 -244 -462 -757 -573
-994 -28 -60 -73 -164 -100 -230 l-48 -120 -256 -254 c-488 -484 -676 -656
-894 -814 -130 -95 -285 -185 -362 -212 -81 -28 -164 -30 -202 -6 -149 94
-130 534 44 1018 25 71 28 74 147 175 432 367 615 536 977 904 763 774 1121
1333 994 1549 -40 70 -129 99 -255 85z m147 -59 c58 -27 77 -66 71 -150 -14
-184 -197 -463 -591 -901 -193 -214 -520 -537 -802 -792 -422 -382 -535 -474
-535 -434 0 16 116 268 212 461 117 233 384 690 512 875 29 41 85 122 125 180
174 250 326 425 491 562 144 121 240 173 375 203 81 18 93 18 142 -4z m1699
-3 c63 -29 80 -120 43 -230 -71 -212 -253 -466 -622 -868 -239 -260 -307 -328
-557 -559 -534 -493 -717 -648 -737 -627 -11 11 248 545 368 756 488 861 926
1389 1249 1506 116 41 197 48 256 22z m-5275 -97 c27 -27 29 -35 29 -104 0
-167 -87 -367 -260 -602 -103 -139 -415 -488 -546 -611 -244 -227 -575 -501
-849 -701 -256 -187 -319 -226 -327 -201 -3 7 13 44 35 82 64 115 67 120 67
132 0 6 15 31 33 55 18 24 50 73 72 109 98 163 368 569 465 700 59 80 123 170
143 200 31 48 135 176 383 470 135 161 353 357 472 427 62 37 168 72 215 73
29 0 45 -7 68 -29z m654 -1935 c17 -12 18 -17 6 -57 -41 -141 -245 -323 -547
-492 -108 -60 -128 -66 -138 -41 -6 16 19 98 52 173 25 54 178 228 247 280
150 113 326 177 380 137z m4804 -142 c34 -45 51 -76 51 -96 0 -30 -60 -157
-134 -282 -128 -217 -368 -467 -514 -536 -64 -31 -76 -17 -67 74 6 59 17 91
82 220 63 126 103 187 240 371 154 205 251 315 279 315 6 0 35 -30 63 -66z"/>
</g>
</svg>
